<!DOCTYPE svg PUBLIC "-//W3C//DTD SVG 1.1//EN" "http://www.w3.org/Graphics/SVG/1.1/DTD/svg11.dtd">
<!-- Uploaded to: SVG Repo, www.svgrepo.com, Transformed by: SVG Repo Mixer Tools -->
<svg height="800px" width="800px" version="1.1" id="_x32_" xmlns="http://www.w3.org/2000/svg" xmlns:xlink="http://www.w3.org/1999/xlink" viewBox="0 0 512 512" xml:space="preserve" fill="#ffffff" stroke="#ffffff">
<g id="SVGRepo_bgCarrier" stroke-width="0"/>
<g id="SVGRepo_tracerCarrier" stroke-linecap="round" stroke-linejoin="round"/>
<g id="SVGRepo_iconCarrier"> <style type="text/css"> .st0{fill:#ffffff;} </style> <g> <path class="st0" d="M491.818,416.224L436.124,333.5l-55.702-82.7l-55.694-82.739L256.034,65.934l-71.482,106.1v0.053 l-52.974,78.666l-55.702,82.754l-55.71,82.74L0,446.066h29.635h7.176h104.22h7.176h104.22h7.146h104.22h7.176h104.22H512 L491.818,416.224z M352.482,265.625l-40.807,60.601l-44.859-66.638l40.793-60.608L352.482,265.625z M216.014,181.694v-0.038 l39.997-59.378l40.77,60.6l-40.8,60.616l-40.8-60.57L216.014,181.694z M204.345,199.018l40.8,60.577l-44.82,66.6l-40.8-60.616 L204.345,199.018z M59.202,414.612l33.785-50.192l33.785,50.192H59.202z M144.623,408.942l-40.8-60.616l44.866-66.645l40.8,60.608 L144.623,408.942z M162.482,414.612l37.843-56.23l37.842,56.23H162.482z M256.019,408.934l-44.859-66.645l44.82-66.599 l44.858,66.645L256.019,408.934z M273.87,414.612l37.812-56.183l37.828,56.183H273.87z M367.37,408.942l-44.859-66.607 l40.808-60.616l44.858,66.606L367.37,408.942z M385.228,414.612l33.785-50.184l33.785,50.184H385.228z"/> </g> </g>
</svg>